{"accessors":[{"bufferView":0,"byteOffset":0,"componentType":5126,"count":264,"max":[11,1.5,7.55000019073486],"min":[-11,-1.5,-7.55000114440918],"normalized":false,"type":"VEC3"},{"bufferView":1,"byteOffset":0,"componentType":5126,"count":264,"max":[0.0000610388815402985,0,0.000564902671612799,1],"min":[-1,-1,-1,-1],"normalized":false,"type":"VEC4"},{"bufferView":2,"byteOffset":0,"componentType":5126,"count":264,"max":[1,1,1],"min":[-1,-1,-1],"normalized":false,"type":"VEC3"},{"bufferView":3,"byteOffset":0,"componentType":5126,"count":264,"max":[1,1],"min":[0,0],"normalized":false,"type":"VEC2"},{"bufferView":4,"byteOffset":0,"componentType":5123,"count":264,"max":[263],"min":[0],"normalized":false,"type":"SCALAR"},{"bufferView":5,"byteOffset":0,"componentType":5126,"count":60,"max":[6.55000019073486,1.5,5.25],"min":[0.84999942779541,-1.5,-5.25],"normalized":false,"type":"VEC3"},{"bufferView":6,"byteOffset":0,"componentType":5126,"count":60,"max":[0,0,0.0000763009302318096,1],"min":[-1,-1,-1,-1],"normalized":false,"type":"VEC4"},{"bufferView":7,"byteOffset":0,"componentType":5126,"count":60,"max":[1,1,1],"min":[-1,-1,-1],"normalized":false,"type":"VEC3"},{"bufferView":8,"byteOffset":0,"componentType":5126,"count":60,"max":[1,1],"min":[0,0],"normalized":false,"type":"VEC2"},{"bufferView":9,"byteOffset":0,"componentType":5123,"count":60,"max":[59],"min":[0],"normalized":false,"type":"SCALAR"},{"bufferView":10,"byteOffset":0,"componentType":5126,"count":168,"max":[13.3999996185303,1.5,9.64999961853027],"min":[-13.3999996185303,-1.5,-9.64999961853027],"normalized":false,"type":"VEC3"},{"bufferView":11,"byteOffset":0,"componentType":5126,"count":168,"max":[0,0,0.0000763009302318096,1],"min":[-1,-1,-1,-1],"normalized":false,"type":"VEC4"},{"bufferView":12,"byteOffset":0,"componentType":5126,"count":168,"max":[1,1,1],"min":[-1,-1,-1],"normalized":false,"type":"VEC3"},{"bufferView":13,"byteOffset":0,"componentType":5126,"count":168,"max":[1,1],"min":[0,0],"normalized":false,"type":"VEC2"},{"bufferView":14,"byteOffset":0,"componentType":5123,"count":168,"max":[167],"min":[0],"normalized":false,"type":"SCALAR"},{"bufferView":15,"byteOffset":0,"componentType":5126,"count":60,"max":[4.5,1.5,-1.60000038146973],"min":[-4.5,-1.5,-15.3999996185303],"normalized":false,"type":"VEC3"},{"bufferView":16,"byteOffset":0,"componentType":5126,"count":60,"max":[0,0,0.0000763009302318096,1],"min":[-1,-1,-1,-1],"normalized":false,"type":"VEC4"},{"bufferView":17,"byteOffset":0,"componentType":5126,"count":60,"max":[1,1,1],"min":[-1,-1,-1],"normalized":false,"type":"VEC3"},{"bufferView":18,"byteOffset":0,"componentType":5126,"count":60,"max":[1,1],"min":[0,0],"normalized":false,"type":"VEC2"},{"bufferView":19,"byteOffset":0,"componentType":5123,"count":60,"max":[59],"min":[0],"normalized":false,"type":"SCALAR"},{"bufferView":20,"byteOffset":0,"componentType":5126,"count":858,"max":[27.2000007629395,4,5.84999990463257],"min":[-35.8999977111816,-2,-32.2500038146973],"normalized":false,"type":"VEC3"},{"bufferView":21,"byteOffset":0,"componentType":5126,"count":858,"max":[0.000091582078312058,0.000290014344500378,0.10946299135685,1],"min":[-1,-1,-1,1],"normalized":false,"type":"VEC4"},{"bufferView":22,"byteOffset":0,"componentType":5126,"count":858,"max":[1,1,1],"min":[-1,-1,-1],"normalized":false,"type":"VEC3"},{"bufferView":23,"byteOffset":0,"componentType":5126,"count":858,"max":[1,1],"min":[0,0],"normalized":false,"type":"VEC2"},{"bufferView":24,"byteOffset":0,"componentType":5123,"count":858,"max":[857],"min":[0],"normalized":false,"type":"SCALAR"}],"asset":{"generator":"Godot Engine v4.3.stable.official@77dcf97d82cbfe4e4615475fa52ca03da645dbd8","version":"2.0"},"bufferViews":[{"buffer":0,"byteLength":3168,"byteOffset":0,"byteStride":12,"target":34962},{"buffer":0,"byteLength":4224,"byteOffset":3168,"byteStride":16,"target":34962},{"buffer":0,"byteLength":3168,"byteOffset":7392,"byteStride":12,"target":34962},{"buffer":0,"byteLength":2112,"byteOffset":10560,"byteStride":8,"target":34962},{"buffer":0,"byteLength":528,"byteOffset":12672,"target":34963},{"buffer":0,"byteLength":720,"byteOffset":13200,"byteStride":12,"target":34962},{"buffer":0,"byteLength":960,"byteOffset":13920,"byteStride":16,"target":34962},{"buffer":0,"byteLength":720,"byteOffset":14880,"byteStride":12,"target":34962},{"buffer":0,"byteLength":480,"byteOffset":15600,"byteStride":8,"target":34962},{"buffer":0,"byteLength":120,"byteOffset":16080,"target":34963},{"buffer":0,"byteLength":2016,"byteOffset":16200,"byteStride":12,"target":34962},{"buffer":0,"byteLength":2688,"byteOffset":18216,"byteStride":16,"target":34962},{"buffer":0,"byteLength":2016,"byteOffset":20904,"byteStride":12,"target":34962},{"buffer":0,"byteLength":1344,"byteOffset":22920,"byteStride":8,"target":34962},{"buffer":0,"byteLength":336,"byteOffset":24264,"target":34963},{"buffer":0,"byteLength":720,"byteOffset":24600,"byteStride":12,"target":34962},{"buffer":0,"byteLength":960,"byteOffset":25320,"byteStride":16,"target":34962},{"buffer":0,"byteLength":720,"byteOffset":26280,"byteStride":12,"target":34962},{"buffer":0,"byteLength":480,"byteOffset":27000,"byteStride":8,"target":34962},{"buffer":0,"byteLength":120,"byteOffset":27480,"target":34963},{"buffer":0,"byteLength":10296,"byteOffset":27600,"byteStride":12,"target":34962},{"buffer":0,"byteLength":13728,"byteOffset":37896,"byteStride":16,"target":34962},{"buffer":0,"byteLength":10296,"byteOffset":51624,"byteStride":12,"target":34962},{"buffer":0,"byteLength":6864,"byteOffset":61920,"byteStride":8,"target":34962},{"buffer":0,"byteLength":1716,"byteOffset":68784,"target":34963}],"buffers":[{"byteLength":70500,"uri":"main_level0.bin"}],"extensions":{"KHR_lights_punctual":{"lights":[{"color":[1,1,1],"intensity":1,"range":340282346638528860000000000000000000000,"type":"directional"}]}},"extensionsUsed":["GODOT_single_root","KHR_lights_punctual"],"images":[{"uri":"textures%2F_albedo000.png"}],"materials":[{"extensions":{},"pbrMetallicRoughness":{"baseColorFactor":[0.0409150421619415,0.0409150421619415,0.0437351800501347,1],"baseColorTexture":{"index":0},"metallicFactor":0,"roughnessFactor":1}}],"meshes":[{"extras":{"targetNames":[]},"primitives":[{"attributes":{"NORMAL":2,"POSITION":0,"TANGENT":1,"TEXCOORD_0":3},"indices":4,"material":0,"mode":4}]},{"extras":{"targetNames":[]},"primitives":[{"attributes":{"NORMAL":7,"POSITION":5,"TANGENT":6,"TEXCOORD_0":8},"indices":9,"material":0,"mode":4}]},{"extras":{"targetNames":[]},"primitives":[{"attributes":{"NORMAL":12,"POSITION":10,"TANGENT":11,"TEXCOORD_0":13},"indices":14,"material":0,"mode":4}]},{"extras":{"targetNames":[]},"primitives":[{"attributes":{"NORMAL":17,"POSITION":15,"TANGENT":16,"TEXCOORD_0":18},"indices":19,"material":0,"mode":4}]},{"extras":{"targetNames":[]},"primitives":[{"attributes":{"NORMAL":22,"POSITION":20,"TANGENT":21,"TEXCOORD_0":23},"indices":24,"material":0,"mode":4}]}],"nodes":[{"children":[1,2,3,6,8,10,12,23],"name":"MainLevel"},{"name":"WorldEnvironment"},{"extensions":{"KHR_lights_punctual":{"light":0}},"name":"DirectionalLight3D","rotation":[-0.12941072881222,0.836515307426453,0.482963681221008,0.22414530813694]},{"children":[4,5],"mesh":0,"name":"Overhang2","translation":[-22.2000007629395,1.5,10.1499996185303]},{"name":"Overhang22","translation":[2,0,4]},{"name":"Overhang3","translation":[-5.5,-0.25,-2]},{"children":[7],"mesh":1,"name":"Overhang24","translation":[-27.0499992370605,1.5,-5.84999990463257]},{"name":"Overhang32","translation":[-2.85000038146973,0,0]},{"children":[9],"mesh":2,"name":"Overhang34","translation":[-0.60000002384186,1.5,-10.25]},{"name":"Overhang4","translation":[-0.40000057220459,0,0.15000057220459]},{"children":[11],"mesh":3,"name":"Overhang43","translation":[25,1.5,-1.70000004768372]},{"name":"Overhang5","translation":[0,0,6.89999961853027]},{"children":[13],"mesh":4,"name":"Room2","translation":[2.29999995231628,2,12.3500003814697]},{"children":[14,15,16,17,18,19,20,21,22],"name":"CSGCombiner3D"},{"name":"Room22","translation":[-24.5,1,-2.20000004768372]},{"name":"Corridor","translation":[-9.5,-0.75,0.350000381469727]},{"name":"Corridor2","translation":[-30,-0.75,-9.14999961853027]},{"name":"Corridor3","translation":[-11.5000009536743,2.25,-10.1499996185303]},{"name":"Corridor4","translation":[-19.5,2.25,-17.1499996185303]},{"name":"Corridor5","translation":[14.4999990463257,2.25,-23.6499996185303]},{"name":"Room3","translation":[-29.3499984741211,1,-18.2000007629395]},{"name":"Room4","translation":[-2.89999890327454,1,-22.6000022888184]},{"name":"Room5","translation":[22.7000007629395,1,-14.0500011444092]},{"name":"Sprite3D","scale":[2.40000009536743,2.40000009536743,2.40000009536743],"translation":[-2,0.100000001490116,-1]}],"samplers":[{"magFilter":9729,"minFilter":9987,"wrapS":10497,"wrapT":10497}],"scene":0,"scenes":[{"nodes":[0]}],"textures":[{"sampler":0,"source":0}]}